# xmcd
#
# Track frame offsets: 
#        150
#        19732
#        37592
#        56222
#        78752
#        94417
#        112282
#        130185
#        148552
#        171055
#        192827
#        212505
#        230795
#
# Disc length: 3475 seconds
#
# Revision: 0
# Processed by: cddbd v1.5.2PL0 Copyright (c) Steve Scherf et al.
# Submitted via: ExactAudioCopy v0.99pb5
#
DISCID=b00d910d
DTITLE=Various Artist - Bolero Jazz, Vol.1
DYEAR=1991
DGENRE=Latin
TTITLE0=César Portillo De La Luz  - Delirio
TTITLE1=Julio Rodríguez - Inolvidable
TTITLE2=Olga Guillot - La Noche De Anoche
TTITLE3=Juanito Márquez - Alma Con Alma
TTITLE4=Bobby Capó - Juguete
TTITLE5=Ernesto Duarte - Cómo Fue
TTITLE6=Frank Domínguez - Imágenes
TTITLE7=José A. Méndez - Si Me Comprendieras
TTITLE8=René Touzet - La Noche De Anoche and Inolvidable and Como Fue and De
TTITLE8=lirio
TTITLE9=Perdida
TTITLE10=Te Vas
TTITLE11=Delirio
TTITLE12=Aquella Risa Loca and Malcriada and La Pared
EXTD=
EXTT0=
EXTT1=
EXTT2=
EXTT3=
EXTT4=
EXTT5=
EXTT6=
EXTT7=
EXTT8=
EXTT9=
EXTT10=
EXTT11=
EXTT12=
PLAYORDER=
